<?xml version="1.0" standalone="no"?>
<!DOCTYPE svg PUBLIC "-//W3C//DTD SVG 20010904//EN"
 "http://www.w3.org/TR/2001/REC-SVG-20010904/DTD/svg10.dtd">
<svg version="1.0" xmlns="http://www.w3.org/2000/svg"
 width="40.000000pt" height="40.000000pt" viewBox="0 0 40.000000 40.000000"
 preserveAspectRatio="xMidYMid meet">

<g transform="translate(0.000000,40.000000) scale(0.100000,-0.100000)"
fill="#000000" stroke="none">
<path d="M206 335 c-14 -8 -26 -10 -26 -4 0 5 -5 9 -10 9 -6 0 -10 -6 -9 -12
4 -35 -4 -50 -41 -74 -31 -21 -40 -33 -40 -55 0 -39 33 -42 82 -7 23 16 28 27
28 59 0 57 15 79 51 79 35 0 79 -39 79 -69 0 -27 10 -51 22 -51 19 0 -1 63
-29 92 -36 38 -74 50 -107 33z"/>
<path d="M100 307 c-32 -25 -50 -62 -49 -102 0 -43 10 -77 22 -76 22 1 34 -12
29 -32 -5 -21 -5 -21 12 -4 21 20 42 21 76 2 36 -21 77 -19 90 5 9 16 5 23
-27 45 -43 29 -60 31 -87 10 -24 -18 -77 -20 -94 -3 -7 7 -12 28 -12 47 0 27
8 42 35 67 44 40 48 76 5 41z"/>
<path d="M230 255 c0 -53 1 -56 40 -80 47 -30 53 -62 18 -96 -24 -23 -5 -16
24 9 12 10 15 23 11 45 -4 20 -3 28 5 23 6 -3 13 -2 17 4 3 5 2 10 -4 10 -21
0 -41 33 -41 66 0 48 -16 74 -45 74 -24 0 -25 -3 -25 -55z"/>
<path d="M140 72 c0 -15 26 -22 78 -21 l47 1 -35 10 c-64 17 -90 20 -90 10z"/>
</g>
</svg>
